<svg width="120" height="124" viewBox="0 0 120 124" fill="none" xmlns="http://www.w3.org/2000/svg">
<g id="Frame 490">
<g id="Group">
<g id="Plate">
<path id="Vector" d="M132.712 97.0656C161.927 67.8499 161.927 20.4817 132.712 -8.73404C103.496 -37.9498 56.1276 -37.9498 26.9118 -8.73404C-2.30395 20.4817 -2.30395 67.8499 26.9118 97.0656C56.1276 126.281 103.496 126.281 132.712 97.0656Z" fill="#3DA0A7"/>
<path id="Vector_2" d="M79.8153 116.649C119.847 116.649 152.298 84.1973 152.298 44.1661C152.298 4.13483 119.847 -28.3169 79.8153 -28.3169C39.7841 -28.3169 7.33234 4.13483 7.33234 44.1661C7.33234 84.1973 39.7841 116.649 79.8153 116.649Z" fill="#FFF6FA"/>
<path id="Vector_3" d="M130.121 94.4745C157.905 66.6896 157.905 21.6414 130.121 -6.14341C102.336 -33.9283 57.2875 -33.9283 29.5026 -6.14341C1.71779 21.6414 1.71779 66.6896 29.5026 94.4745C57.2875 122.259 102.336 122.259 130.121 94.4745Z" fill="#BCE5E8"/>
<path id="Vector_4" d="M50.1539 108.834C59.1841 112.983 69.2237 115.315 79.8153 115.315C119.109 115.315 150.964 83.4601 150.964 44.1663C150.964 21.4407 140.294 1.21878 123.707 -11.8071C125.338 -3.37292 125.911 5.3236 126.446 13.9215C127.031 23.3127 127.608 32.8171 125.89 42.0677C123.766 53.4924 118.224 64.0126 111.794 73.6912C104.774 84.2555 96.4382 94.2112 85.7858 101.097C75.3117 107.869 62.3404 111.411 50.1539 108.834Z" fill="#8FD2D7"/>
<path id="Vector_5" d="M120.189 84.5429C142.488 62.2432 142.488 26.0883 120.189 3.7886C97.8891 -18.5111 61.7342 -18.5111 39.4345 3.7886C17.1348 26.0883 17.1348 62.2432 39.4345 84.5429C61.7342 106.843 97.8891 106.843 120.189 84.5429Z" fill="#FFF6FA"/>
<path id="Vector_6" d="M79.8153 98.8171C109.998 98.8171 134.467 74.3489 134.467 44.1658C134.467 13.9828 109.998 -10.4855 79.8153 -10.4855C49.6322 -10.4855 25.1639 13.9828 25.1639 44.1658C25.1639 74.3489 49.6322 98.8171 79.8153 98.8171Z" fill="#ADDFE2"/>
<path id="Vector_7" d="M114.209 78.5625C133.206 59.5656 133.206 28.7655 114.209 9.76855C95.2117 -9.22838 64.4116 -9.2284 45.4147 9.76853C26.4178 28.7655 26.4178 59.5656 45.4147 78.5625C64.4116 97.5595 95.2118 97.5595 114.209 78.5625Z" fill="#FFF6FA"/>
<path id="Vector_8" d="M79.8154 90.7711C105.922 90.7711 127.086 69.9052 127.086 44.1658C127.086 18.4263 105.922 -2.43958 79.8154 -2.43958C53.7086 -2.43958 32.5448 18.4263 32.5448 44.1658C32.5448 69.9052 53.7086 90.7711 79.8154 90.7711Z" fill="#BCE5E8"/>
</g>
<g id="Group_2">
<g id="Group_3">
<path id="Vector_9" d="M47.977 19.8983C37.742 23.374 30.0136 30.7334 25.8614 40.6907C21.3701 51.4625 25.457 61.6192 33.7539 69.0924C41.1748 75.7753 52.392 78.513 61.8294 74.7615C70.9444 71.1368 78.2106 61.3546 76.3004 51.1699C74.4517 41.3206 66.1996 34.2482 56.0521 35.0104C44.7194 35.8621 37.4028 45.7281 34.0278 55.6594C32.3934 60.4694 31.7244 65.6205 32.5965 70.6355C33.5805 76.2934 38.2154 81.2525 42.3974 84.8102C50.8545 92.0019 62.2915 94.3296 72.9403 91.5938C95.1305 85.893 105.039 57.7969 96.7127 38.0053C92.7059 28.4821 84.0829 21.2587 73.5553 21.1637C64.0937 21.078 54.8799 27.4255 51.5589 36.2497C47.8988 45.976 49.7847 56.6005 56.4323 64.5432C63.6352 73.1495 74.6026 73.1234 84.1388 68.8948C93.3134 64.8265 93.9992 52.3197 88.3487 45.0758C82.5156 37.5971 71.386 35.3403 63.501 41.1827C55.575 47.0569 50.5339 58.9636 54.6339 68.4289C58.5643 77.4973 67.0158 82.6745 76.5744 83.9585C98.062 86.8471 120.215 63.9823 116.07 42.5674C111.925 21.145 79.6903 15.0324 67.2264 32.0044C60.1614 41.6263 56.4043 53.5125 55.4259 65.3148C54.9619 70.9038 55.2843 76.7388 56.7249 82.1657C58.2624 87.9597 62.5021 92.0951 66.904 95.8689C71.2276 99.5757 75.7003 102.96 81.39 104.106C86.4758 105.131 91.7461 103.24 96.4555 101.542C99.1391 100.575 98.1216 96.2156 95.4081 97.194C88.5854 99.654 82.6516 101.109 75.9911 97.2256C69.9958 93.7295 63.3035 87.8237 61.0709 81.1184C56.9821 68.8371 60.8361 53.2348 66.371 42.053C69.4348 35.8639 73.1472 30.042 80.0332 27.91C86.5168 25.9029 93.798 26.3856 99.9517 29.2034C105.438 31.7155 109.544 36.6821 111.394 42.3587C113.651 49.2821 110.725 56.8595 107.335 62.8716C100.839 74.4 87.8344 81.5675 74.612 79.1578C69.2037 78.172 64.6453 75.151 61.192 70.956C56.6224 65.4043 56.9355 58.5033 60.0291 52.3664C63.3314 45.8157 69.0863 41.3486 76.6713 42.5749C83.8853 43.7415 88.4606 51.3544 87.3144 58.2815C86.1553 65.2794 77.2005 67.4337 71.2127 67.4319C63.775 67.43 57.8971 60.7713 55.4819 54.338C50.9141 42.176 57.5989 28.7989 70.2995 25.97C84.1276 22.8894 93.2165 36.8722 95.1827 48.6614C97.4265 62.1205 89.9216 77.1674 78.5628 84.3554C66.727 91.8454 51.5366 88.0976 42.2035 78.5242C36.9705 73.1551 35.8616 67.1281 37.4513 60.0184C39.1155 52.5807 43.003 45.497 49.7139 41.5759C63.6539 33.43 76.7272 49.0659 69.8765 62.2995C63.0612 75.4641 45.4202 73.6024 35.9194 65.0483C31.0404 60.6558 27.9244 54.7984 28.4779 48.1751C29.0445 41.4082 33.3494 35.0775 38.1408 30.5638C41.2214 27.664 45.0325 25.5972 49.017 24.2442C51.7323 23.3255 50.7091 18.9683 47.977 19.8983Z" fill="#FFA25F"/>
</g>
<g id="Group_4">
<path id="Vector_10" d="M55.3421 84.3461C64.0881 90.6973 74.558 92.7585 85.0874 90.401C96.476 87.8516 102.412 78.6509 103.722 67.5623C104.894 57.6441 100.656 46.904 92.145 41.3654C83.9245 36.0149 71.742 35.7279 64.5279 43.1675C57.5524 50.3611 56.5404 61.185 63.0203 69.029C70.2567 77.7899 82.5361 78.0713 92.596 75.0932C97.4675 73.6508 102.059 71.2243 105.651 67.6163C109.702 63.5462 111.078 56.8987 111.568 51.4308C112.559 40.3739 107.857 29.6916 99.4765 22.5744C82.0125 7.74555 53.3499 15.8728 41.9948 34.0972C36.5326 42.8656 35.6101 54.0771 41.611 62.7281C47.0024 70.5031 57.5058 74.3627 66.6283 71.981C76.6844 69.3551 84.2693 61.6826 86.9175 51.6693C89.7875 40.8193 83.4344 31.8795 74.476 26.5327C65.8586 21.3891 55.2508 28.0498 52.597 36.8442C49.8575 45.9238 54.4383 56.3153 63.762 59.381C73.1323 62.4616 85.7658 59.7071 91.1274 50.894C96.2655 42.45 95.6113 32.5597 91.1442 24.0131C81.0993 4.79915 49.6413 -0.0909722 34.5478 15.6548C19.4469 31.4061 33.0644 61.2558 54.1177 61.636C66.0543 61.8522 77.9274 58.0578 88.1289 52.0439C92.9594 49.1963 97.5383 45.5659 101.139 41.2554C104.982 36.656 105.912 30.8079 106.454 25.0325C106.985 19.3634 107.166 13.7557 104.818 8.44812C102.719 3.70334 98.1328 0.492343 94.0272 -2.37391C91.6865 -4.00645 88.7159 -0.659368 91.0809 0.98994C97.0277 5.14023 101.642 9.14702 102.315 16.827C102.92 23.7392 101.961 32.6138 97.775 38.3072C90.1062 48.736 75.1431 54.5952 62.8153 56.5296C55.9925 57.6012 49.0953 57.9293 43.3795 53.5386C37.9974 49.4032 34.19 43.1787 32.9376 36.5274C31.8213 30.5973 33.5079 24.3784 37.073 19.5907C41.4227 13.752 49.3003 11.7672 56.1659 11.0628C69.3286 9.71353 82.6908 16.1952 88.3544 28.3815C90.6709 33.3667 90.8349 38.8327 89.4036 44.0732C87.5083 51.0096 81.6919 54.7369 74.8953 55.7525C67.6402 56.8372 60.6702 54.7163 57.2933 47.8153C54.0823 41.2498 57.6568 33.1207 63.9745 30.0588C70.3574 26.9651 77.2863 33.0331 80.7415 37.9251C85.0315 43.9987 82.989 52.6422 79.1294 58.3299C71.8352 69.0812 57.0529 71.3436 47.4124 62.6069C36.9165 53.0931 43.0851 37.6008 51.5776 29.1903C61.2722 19.5889 77.892 17.0301 90.3186 22.157C103.267 27.4981 108.975 42.0661 106.543 55.2121C105.181 62.5846 100.898 66.9697 94.1745 69.7744C87.1412 72.7078 79.1108 73.6228 72.0365 70.4081C57.3381 63.727 62.5581 44.0248 77.3199 41.9804C92.0034 39.9453 100.667 55.4264 99.1653 68.1214C98.3937 74.6423 95.4119 80.5667 89.6831 83.938C83.8314 87.382 76.1756 87.5217 69.7237 86.2135C65.5772 85.373 61.6896 83.4535 58.2848 80.9804C55.972 79.3013 53.0051 82.6502 55.3421 84.3461Z" fill="#FFA25F"/>
</g>
<g id="Group_5">
<path id="Vector_11" d="M65.7449 84.3461C74.4908 90.6973 84.9607 92.7585 95.4902 90.401C106.879 87.8516 112.814 78.6509 114.125 67.5623C115.297 57.6441 111.059 46.904 102.548 41.3654C94.3273 36.0149 82.1447 35.7279 74.9306 43.1675C67.9551 50.3611 66.9432 61.185 73.423 69.029C80.6594 77.7899 92.9388 78.0713 102.999 75.0932C107.87 73.6508 112.462 71.2243 116.053 67.6163C120.105 63.5462 121.48 56.8987 121.97 51.4308C122.962 40.3739 118.26 29.6916 109.879 22.5744C92.4152 7.74555 63.7526 15.8728 52.3976 34.0972C46.9353 42.8656 46.0128 54.0771 52.0137 62.7281C57.4051 70.5031 67.9085 74.3627 77.031 71.981C87.0871 69.3551 94.672 61.6826 97.3202 51.6693C100.19 40.8193 93.8371 31.8795 84.8787 26.5327C76.2613 21.3891 65.6535 28.0498 62.9997 36.8442C60.2602 45.9238 64.841 56.3153 74.1647 59.381C83.535 62.4616 96.1685 59.7071 101.53 50.894C106.668 42.45 106.014 32.5597 101.547 24.0131C91.502 4.79915 60.044 -0.0909722 44.9505 15.6548C29.8496 31.4061 43.4671 61.2558 64.5204 61.636C76.457 61.8522 88.3301 58.0578 98.5316 52.0439C103.362 49.1963 107.941 45.5659 111.542 41.2554C115.384 36.656 116.314 30.8079 116.857 25.0325C117.388 19.3634 117.569 13.7557 115.22 8.44812C113.122 3.70334 108.536 0.492343 104.43 -2.37391C102.089 -4.00645 99.1186 -0.659368 101.484 0.98994C107.43 5.14023 112.045 9.14702 112.717 16.827C113.323 23.7392 112.363 32.6138 108.178 38.3072C100.509 48.736 85.5459 54.5952 73.218 56.5296C66.3953 57.6012 59.498 57.9293 53.7822 53.5386C48.4001 49.4032 44.5927 43.1787 43.3403 36.5274C42.224 30.5973 43.9106 24.3784 47.4757 19.5907C51.8254 13.752 59.703 11.7672 66.5686 11.0628C79.7313 9.71353 93.0935 16.1952 98.7571 28.3815C101.074 33.3667 101.238 38.8327 99.8063 44.0732C97.911 51.0096 92.0946 54.7369 85.298 55.7525C78.0429 56.8372 71.073 54.7163 67.6961 47.8153C64.485 41.2498 68.0595 33.1207 74.3772 30.0588C80.7619 26.9651 87.689 33.0331 91.1442 37.9251C95.4342 43.9987 93.3917 52.6422 89.5321 58.3299C82.2379 69.0812 67.4557 71.3436 57.8151 62.6069C47.3173 53.0931 53.4878 37.6008 61.9803 29.1903C71.6749 19.5889 88.2947 17.0301 100.721 22.157C113.67 27.4981 119.378 42.0661 116.946 55.2121C115.584 62.5846 111.301 66.9697 104.577 69.7744C97.5439 72.7078 89.5135 73.6228 82.4392 70.4081C67.7408 63.727 72.9608 44.0248 87.7226 41.9804C102.406 39.9453 111.07 55.4264 109.568 68.1214C108.796 74.6423 105.815 80.5667 100.086 83.938C94.2341 87.382 86.5783 87.5217 80.1264 86.2135C75.9799 85.373 72.0924 83.4535 68.6875 80.9804C66.3766 79.3013 63.4097 82.6502 65.7449 84.3461Z" fill="#FFA25F"/>
</g>
<g id="Group_6">
<path id="Vector_12" d="M44.056 65.5234C46.6464 76.0175 53.3182 84.346 62.886 89.3331C73.2348 94.7283 83.7028 91.5229 91.8561 83.8932C99.1485 77.0686 102.833 66.1273 99.8995 56.4047C97.0668 47.0139 87.9406 38.9389 77.6292 39.9732C67.6588 40.9739 59.9061 48.5924 59.7999 58.7678C59.6806 70.1303 68.8869 78.2651 78.4939 82.475C83.1474 84.5138 88.222 85.6208 93.293 85.1791C99.0143 84.6815 104.352 80.4865 108.252 76.6232C116.139 68.8109 119.436 57.6142 117.619 46.7698C113.832 24.1752 86.6845 11.9032 66.2555 18.5098C56.4249 21.6891 48.4933 29.6636 47.5 40.1446C46.6073 49.5652 52.146 59.2859 60.6534 63.3486C70.0331 67.825 80.7787 66.8522 89.2582 60.9072C98.4477 54.4647 99.3572 43.5364 95.9579 33.6722C92.6873 24.1845 80.2849 22.4346 72.5862 27.4459C64.6379 32.6193 61.438 43.5159 66.5872 51.8705C71.7625 60.268 83.1958 66.308 92.9761 63.0299C102.348 59.8879 108.226 51.9078 110.323 42.4947C115.036 21.3313 94.1446 -2.69081 72.4539 -0.391093C50.7557 1.91048 41.9147 33.5045 57.7611 47.3717C66.7456 55.2325 78.2666 59.9904 89.9422 61.9733C95.4697 62.9125 101.312 63.0896 106.843 62.1168C112.747 61.0787 117.229 57.2098 121.367 53.1453C125.429 49.1552 129.183 44.9863 130.81 39.4159C132.265 34.4363 130.83 29.0244 129.54 24.1864C128.804 21.4301 124.376 22.0712 125.12 24.8573C126.989 31.8645 127.932 37.9027 123.495 44.2055C119.501 49.8802 113.044 56.0432 106.172 57.6962C93.5855 60.7227 78.3709 55.5512 67.7017 49.0807C61.7958 45.4988 56.313 41.3038 54.7756 34.2611C53.3275 27.6285 54.4308 20.4181 57.7648 14.5254C60.7354 9.27367 66.0337 5.60608 71.8482 4.24749C78.9375 2.58887 86.2391 6.15209 91.94 10.0415C102.87 17.4978 108.905 31.0669 105.375 44.0359C103.931 49.3398 100.531 53.6242 96.0567 56.7067C90.1341 60.7861 83.2872 59.8841 77.4354 56.278C71.1904 52.4278 67.2302 46.3132 69.1012 38.8606C70.8791 31.7714 78.8555 27.8633 85.6596 29.5965C92.5345 31.3483 93.9154 40.454 93.4029 46.4213C92.7655 53.8311 85.6316 59.12 79.0139 60.9781C66.5052 64.491 53.7487 56.6899 52.0155 43.7936C50.1277 29.7531 64.8335 21.8904 76.7477 20.9381C90.3503 19.8516 104.7 28.6125 110.893 40.5453C117.345 52.9776 112.313 67.7934 101.979 76.2729C96.1834 81.0288 90.0838 81.6196 83.1362 79.428C75.8681 77.1357 69.1404 72.6574 65.8064 65.6353C58.8793 51.0505 75.5755 39.36 88.1754 47.314C100.71 55.2288 97.3501 72.6462 88.0152 81.381C83.2219 85.8668 77.1204 88.4721 70.5679 87.354C63.8738 86.2134 57.9325 81.3829 53.8456 76.2225C51.2179 72.9053 49.4847 68.932 48.4784 64.847C47.7926 62.0739 43.3646 62.7224 44.056 65.5234Z" fill="#EABF58"/>
</g>
<g id="Group_7">
<path id="Vector_13" d="M40.64 26.8903C33.3607 35.6345 30.4665 46.4863 32.209 57.7091C34.095 69.8487 43.3442 76.7218 54.9005 78.8706C65.2343 80.792 76.8111 77.0871 83.2201 68.5349C89.4111 60.2716 90.5609 47.4983 83.2499 39.4046C76.1794 31.5773 64.8839 29.7622 56.192 36.0221C46.4862 43.0126 45.3364 55.8902 47.7647 66.6619C48.9406 71.8782 51.1695 76.8709 54.7085 80.8944C58.7004 85.4324 65.5865 87.3389 71.2966 88.2353C82.8399 90.0449 94.387 85.8517 102.445 77.5436C119.235 60.2324 112.693 29.5646 94.3441 16.3702C85.5161 10.0226 73.8051 8.27459 64.3006 13.9736C55.7578 19.0948 50.9738 29.8572 52.8412 39.604C54.8986 50.3478 62.4295 58.8496 72.7633 62.3272C83.9581 66.0954 93.7906 60.0479 100.03 51.0094C106.031 42.3174 99.7747 30.7108 90.7231 27.3134C81.377 23.8042 70.1431 27.893 66.2761 37.4701C62.3885 47.0976 64.4031 60.5586 73.2851 66.8036C81.7963 72.7877 92.2289 72.7895 101.517 68.6914C122.397 59.4777 129.721 26.7804 114.235 9.83072C98.7423 -7.12454 66.4438 5.09709 64.5802 27.1848C63.5235 39.7065 66.6805 52.4406 72.2862 63.5739C74.94 68.8461 78.4362 73.9077 82.7113 77.9891C87.2754 82.3462 93.3527 83.729 99.3796 84.7C105.297 85.6523 111.173 86.2319 116.911 84.1353C122.041 82.2605 125.733 77.6667 129.028 73.5555C130.907 71.2111 127.599 67.8584 125.7 70.227C120.925 76.1851 116.398 80.751 108.284 80.9243C100.982 81.079 91.7276 79.4539 86.0398 74.6606C75.6203 65.8811 70.5083 49.757 69.3342 36.6744C68.6838 29.4342 68.8199 22.1679 73.8293 16.4708C78.548 11.1054 85.3484 7.54031 92.4227 6.68863C98.7292 5.92827 105.144 8.13296 109.924 12.2124C115.755 17.1865 117.289 25.5989 117.552 32.8577C118.053 46.7771 110.315 60.3592 97.1228 65.4599C91.7257 67.5472 85.9727 67.3385 80.5682 65.4692C73.4137 62.9962 69.9045 56.6282 69.3119 49.4178C68.6783 41.7211 71.3898 34.5498 78.8723 31.4842C85.9913 28.5676 94.2807 32.8875 97.0575 39.7382C99.8623 46.6578 93.006 53.5122 87.6295 56.8015C80.9502 60.8847 72.016 58.1377 66.3115 53.6892C55.5285 45.2787 54.1793 29.5982 64.0285 20.0807C74.7518 9.7189 90.5926 17.2759 98.8354 26.7804C108.245 37.6304 109.775 55.264 103.526 67.959C97.0147 81.1852 81.3174 86.1667 67.6793 82.7003C60.031 80.7547 55.7242 75.954 53.2456 68.697C50.6533 61.1065 50.2507 52.6083 54.1215 45.4017C62.1612 30.4293 82.4896 37.2838 83.6096 52.9289C84.7241 68.4939 67.8638 76.5149 54.634 74.0549C47.8392 72.7914 41.8253 69.2468 38.6832 62.9944C35.4741 56.6077 35.8598 48.5587 37.6825 41.8739C38.8547 37.5782 41.1413 33.6273 43.9741 30.2244C45.8955 27.9041 42.5838 24.5552 40.64 26.8903Z" fill="#F7D075"/>
</g>
<g id="Group_8">
<path id="Vector_14" d="M115.714 20.6159C114.035 9.36338 107.863 -0.0218048 98.3285 -6.1904C88.0152 -12.864 76.7291 -10.5364 67.4315 -3.34464C59.1178 3.08859 54.1774 14.192 56.2926 24.6693C58.337 34.7907 67.1035 44.1517 78.0113 44.0827C88.5594 44.0175 97.4339 36.796 98.5465 26.1435C99.7914 14.2461 90.9467 4.81613 81.2912 -0.54179C76.6154 -3.13782 71.4066 -4.7964 66.0486 -4.83368C60.0049 -4.87654 53.9985 -1.0058 49.5295 2.65808C40.4946 10.0679 35.9362 21.4769 36.773 33.0184C38.5136 57.0703 65.7542 72.6055 87.8158 67.6948C98.431 65.3318 107.529 57.7561 109.603 46.8707C111.467 37.0867 106.622 26.3522 98.1049 21.2571C88.7178 15.6401 77.3609 15.6009 67.8862 20.9961C57.6213 26.8423 55.59 38.2049 58.1804 48.876C60.6721 59.1408 73.4976 62.1971 82.059 57.7039C90.8982 53.0654 95.3262 41.9619 90.7529 32.6997C86.1572 23.389 74.7704 15.9327 64.1981 18.4038C54.0674 20.7725 47.1198 28.555 43.9964 38.2142C36.9724 59.9273 56.4976 87.1604 79.4537 86.8883C102.419 86.6144 114.799 54.3755 99.5585 38.2812C90.9187 29.1569 79.3139 23.0368 67.2731 19.809C61.5722 18.2809 55.4689 17.5186 49.5761 17.9939C43.2863 18.4989 38.208 22.1143 33.4725 25.9645C28.8227 29.7458 24.4786 33.7452 22.2237 39.4218C20.2072 44.4983 21.1781 50.3109 22.0522 55.5067C22.5516 58.468 27.2554 58.2313 26.7522 55.2384C25.485 47.7093 25.0918 41.291 30.3621 35.1224C35.1069 29.5707 42.4812 23.7469 49.8444 22.692C63.3333 20.7613 78.7679 27.681 89.3104 35.5119C95.1454 39.8467 100.479 44.7853 101.396 52.3162C102.259 59.4092 100.392 66.8581 96.3195 72.7042C92.6892 77.9149 86.774 81.2359 80.5476 82.0876C72.9534 83.1275 65.6554 78.6735 60.0645 74.0349C49.345 65.1435 44.3598 50.3277 49.3357 37.0867C51.3707 31.6691 55.357 27.5151 60.3478 24.7271C66.9562 21.0353 74.0436 22.6548 79.819 27.0119C85.9838 31.6617 89.5303 38.4602 86.8374 46.0861C84.2749 53.3394 75.5326 56.6491 68.572 54.163C61.5405 51.649 60.9889 41.9712 62.1164 35.7691C63.5141 28.0667 71.5128 23.2288 78.63 21.9335C92.0835 19.4847 104.683 28.9184 105.231 42.603C105.826 57.5027 89.6403 64.2937 77.0608 64.1167C62.6997 63.9154 48.5231 53.3188 43.2099 40.2045C37.6731 26.5404 44.4064 11.5103 56.0727 3.64208C62.6159 -0.77098 69.0659 -0.789619 76.1309 2.19404C83.522 5.31375 90.1304 10.6698 92.9314 18.3554C98.7534 34.3229 80.1041 44.9288 67.6849 35.3498C55.3291 25.8211 60.5659 7.89858 71.209 -0.336774C76.675 -4.56534 83.3245 -6.69362 90.082 -4.87845C96.9848 -3.02228 102.734 2.62454 106.508 8.43532C108.934 12.17 110.358 16.5048 111.012 20.8843C111.46 23.8624 116.163 23.622 115.714 20.6159Z" fill="#FCDB9A"/>
</g>
<path id="Vector_15" d="M55.5304 -13.5238L56.4622 -9.16849L59.1831 -3.38198L60.756 92.5369L58.1041 102.571L56.0168 105.8L55.5304 -13.5238Z" fill="url(#paint0_radial_1_9981)"/>
<path id="Vector_16" d="M57.7239 92.8627C57.8879 92.8925 58.0072 92.9148 58.1097 92.9372C58.2234 92.9409 58.3762 92.9465 58.6017 92.9614C59.2428 93.0005 59.8783 93.0248 60.5193 93.0323C60.5548 93.0323 60.5883 93.0379 60.6237 93.0397L60.756 92.5384L59.185 -3.38052L59.0284 -3.71411C58.9874 -3.68988 58.9464 -3.66936 58.9054 -3.64514C58.5514 -3.43641 58.1991 -3.2221 57.8506 -3.00219C57.6997 -2.86056 56.9785 -2.29215 56.7884 -2.11138C56.4175 -1.75542 56.0112 -1.45722 55.5845 -1.20377L55.9646 92.4154C56.5424 92.5868 57.1257 92.7546 57.7239 92.8627Z" fill="#8A6D3F"/>
<g id="Group_9">
<path id="Vector_17" d="M54.1028 -33.582L49.85 122.688C49.85 122.688 53.6779 125.027 56.0148 122.688V-33.582C56.0167 -33.582 55.5918 -36.7725 54.1028 -33.582Z" fill="#912828"/>
<path id="Vector_18" d="M55.1128 -34.9651L51.0296 123.245C51.0296 123.245 52.8243 123.887 54.0282 123.68L53.935 116.924L55.1128 -34.9651Z" fill="#B95F5F"/>
<path id="Vector_19" d="M55.1128 -34.9652L52.6453 123.648C52.6453 123.648 55.8694 124.03 56.0166 122.686L55.4557 -34.9353C55.4557 -34.9353 55.2563 -35.0416 55.1128 -34.9652C55.1128 -34.9652 54.9693 -34.8869 55.1128 -34.9652Z" fill="#AF4040"/>
<path id="Vector_20" d="M54.0039 54.8154C54.0039 55.5646 53.7412 56.174 53.4169 56.174C53.0926 56.174 52.8298 55.5664 52.8298 54.8154C52.8298 54.0662 53.0926 53.4568 53.4169 53.4568C53.7412 53.4568 54.0039 54.0643 54.0039 54.8154Z" fill="#FFA773"/>
</g>
<path id="Vector_21" d="M42.6584 4.18618L43.1615 9.53291L45.1314 86.8939L43.8958 89.1991C43.8958 89.1991 42.5242 90.6192 42.6602 92.0207L40.7146 91.3498L41.1824 0.302368L42.6584 4.18618Z" fill="url(#paint1_radial_1_9981)"/>
<path id="Vector_22" d="M43.1074 8.97034C43.0552 9.02625 43.003 9.08032 42.949 9.13623C42.4328 9.87049 41.814 10.5004 41.1263 11.0091L40.748 84.559C41.2177 84.7137 41.6761 84.9037 42.0973 85.1814C42.6434 85.5411 43.1577 85.9418 43.6665 86.3518C44.0597 86.6443 44.4622 86.9165 44.9151 87.1196C44.9393 87.1308 44.9617 87.1475 44.9859 87.1587L45.1294 86.8922L43.1596 9.53129L43.1074 8.97034Z" fill="#8A6D3F"/>
<g id="Group_10">
<path id="Vector_23" d="M39.7044 -33.582L35.4516 122.688C35.4516 122.688 39.2795 125.027 41.6165 122.688V-33.582C41.6183 -33.582 41.1934 -36.7725 39.7044 -33.582Z" fill="#912828"/>
<path id="Vector_24" d="M40.7144 -34.9651L36.6312 123.245C36.6312 123.245 38.4259 123.887 39.6298 123.68L39.5366 116.924L40.7144 -34.9651Z" fill="#B95F5F"/>
<path id="Vector_25" d="M40.7146 -34.9652L38.2472 123.648C38.2472 123.648 41.4713 124.03 41.6185 122.686L41.0575 -34.9353C41.0557 -34.9353 40.8563 -35.0416 40.7146 -34.9652C40.7146 -34.9652 40.5711 -34.8869 40.7146 -34.9652Z" fill="#AF4040"/>
<path id="Vector_26" d="M39.6058 54.8154C39.6058 55.5646 39.343 56.174 39.0187 56.174C38.6945 56.174 38.4317 55.5664 38.4317 54.8154C38.4317 54.0662 38.6945 53.4568 39.0187 53.4568C39.343 53.4568 39.6058 54.0643 39.6058 54.8154Z" fill="#FFA773"/>
</g>
<path id="Vector_27" d="M43.1614 9.53284L46.6576 87.1584L45.1313 86.8919L43.1614 9.53284Z" fill="#FFD38F"/>
<path id="Vector_28" d="M59.183 -3.3822L61.6784 92.6131L60.6217 93.038L59.183 -3.3822Z" fill="#FFD38F"/>
<path id="Vector_29" d="M53.4169 99.7697C53.4169 100.811 53.0293 101.658 52.5503 101.658C52.0714 101.658 51.6837 100.811 51.6837 99.7697C51.6837 98.7279 52.0714 97.8818 52.5503 97.8818C53.0293 97.8818 53.4169 98.726 53.4169 99.7697Z" fill="white"/>
<path id="Vector_30" d="M38.726 62.0985C38.9905 62.0985 39.2049 61.6655 39.2049 61.1313C39.2049 60.5971 38.9905 60.1641 38.726 60.1641C38.4614 60.1641 38.247 60.5971 38.247 61.1313C38.247 61.6655 38.4614 62.0985 38.726 62.0985Z" fill="white"/>
<path id="Vector_31" d="M116.303 75.0092C132.28 75.0092 145.232 62.6329 145.232 47.3661C145.232 32.0992 132.28 19.7229 116.303 19.7229C100.326 19.7229 87.3741 32.0992 87.3741 47.3661C87.3741 62.6329 100.326 75.0092 116.303 75.0092Z" fill="#5C1A09"/>
<path id="Vector_32" d="M115.697 74.3718C131.34 74.3718 144.021 62.1383 144.021 47.0474C144.021 31.9565 131.34 19.7229 115.697 19.7229C100.055 19.7229 87.3741 31.9565 87.3741 47.0474C87.3741 62.1383 100.055 74.3718 115.697 74.3718Z" fill="#6A2A2A"/>
<g id="Group_11">
<g id="Group_12">
<path id="Vector_33" d="M115.507 73.1552C130.783 73.1552 143.166 60.7717 143.166 45.4958C143.166 30.22 130.783 17.8364 115.507 17.8364C100.231 17.8364 87.8474 30.22 87.8474 45.4958C87.8474 60.7717 100.231 73.1552 115.507 73.1552Z" fill="#D34040"/>
<path id="Vector_34" d="M115.507 72.0536C130.174 72.0536 142.064 60.1634 142.064 45.496C142.064 30.8287 130.174 18.9385 115.507 18.9385C100.84 18.9385 88.9493 30.8287 88.9493 45.496C88.9493 60.1634 100.84 72.0536 115.507 72.0536Z" fill="#F35C53"/>
<path id="Vector_35" d="M133.75 63.75C143.829 53.6708 143.829 37.3292 133.75 27.25C123.671 17.1708 107.329 17.1708 97.25 27.25C87.1708 37.3292 87.1708 53.6708 97.25 63.75C107.329 73.8292 123.671 73.8292 133.75 63.75Z" fill="#F35C53"/>
<path id="Vector_36" d="M115.507 70.9604C129.571 70.9604 140.971 59.5595 140.971 45.4958C140.971 31.432 129.571 20.0311 115.507 20.0311C101.443 20.0311 90.0422 31.432 90.0422 45.4958C90.0422 59.5595 101.443 70.9604 115.507 70.9604Z" fill="#C02E24"/>
<path id="Vector_37" d="M133.053 63.0527C142.747 53.3586 142.747 37.6414 133.053 27.9473C123.359 18.2532 107.641 18.2532 97.9471 27.9473C88.253 37.6414 88.253 53.3586 97.9471 63.0527C107.641 72.7468 123.359 72.7468 133.053 63.0527Z" fill="#FF9D97"/>
<path id="Vector_38" d="M133.736 61.2653C142.089 51.2065 140.607 36.1996 130.427 27.7466C120.248 19.2935 105.224 20.5953 96.8715 30.6542C88.519 40.713 90.0004 55.7199 100.18 64.1729C110.36 72.6259 125.384 71.3242 133.736 61.2653Z" fill="#DF6565"/>
<path id="Vector_39" d="M115.507 66.6689C127.2 66.6689 136.68 57.1895 136.68 45.4959C136.68 33.8024 127.2 24.3229 115.507 24.3229C103.813 24.3229 94.3337 33.8024 94.3337 45.4959C94.3337 57.1895 103.813 66.6689 115.507 66.6689Z" fill="#FF9D97"/>
<path id="Vector_40" d="M122.298 64.6482C132.873 60.8817 138.393 49.2554 134.626 38.6802C130.86 28.1049 119.233 22.5853 108.658 26.3518C98.0829 30.1182 92.5633 41.7445 96.3297 52.3197C100.096 62.895 111.722 68.4146 122.298 64.6482Z" fill="#FF8585"/>
<path id="Vector_41" d="M115.507 64.1204C125.793 64.1204 134.131 55.782 134.131 45.4961C134.131 35.2101 125.793 26.8717 115.507 26.8717C105.221 26.8717 96.8824 35.2101 96.8824 45.4961C96.8824 55.782 105.221 64.1204 115.507 64.1204Z" fill="#F26C6C"/>
<path id="Vector_42" d="M115.507 63.4747C125.436 63.4747 133.485 55.4254 133.485 45.4959C133.485 35.5665 125.436 27.5171 115.507 27.5171C105.577 27.5171 97.5278 35.5665 97.5278 45.4959C97.5278 55.4254 105.577 63.4747 115.507 63.4747Z" fill="#FF8585"/>
<path id="Vector_43" d="M123.572 47.4686C124.655 43.0029 121.913 38.5047 117.447 37.4216C112.981 36.3385 108.483 39.0806 107.4 43.5463C106.317 48.0121 109.059 52.5102 113.525 53.5933C117.99 54.6765 122.489 51.9343 123.572 47.4686Z" fill="#CA4844"/>
<path id="Vector_44" d="M116.19 53.0284C120.374 52.6405 123.452 48.9345 123.064 44.7506C122.676 40.5668 118.97 37.4895 114.786 37.8774C110.602 38.2652 107.525 41.9713 107.913 46.1551C108.301 50.3389 112.007 53.4162 116.19 53.0284Z" fill="#FF928A"/>
<path id="Vector_45" d="M116.146 52.5508C120.065 52.1875 122.948 48.7156 122.585 44.7962C122.221 40.8768 118.749 37.9939 114.83 38.3573C110.91 38.7206 108.028 42.1925 108.391 46.1119C108.754 50.0314 112.226 52.9141 116.146 52.5508Z" fill="#FF685F"/>
<path id="Vector_46" d="M124.62 27.1298C122.472 30.7736 120.321 34.4197 118.173 38.0635C118.26 38.3863 118.696 38.4998 119.003 38.3662C119.311 38.2327 119.511 37.9389 119.696 37.6584C120.953 35.7575 122.211 33.8565 123.36 31.8888C124.096 30.6267 124.806 29.2867 124.902 27.8287C124.918 27.5794 124.867 27.2611 124.624 27.201L124.62 27.1298Z" fill="#CA4844"/>
<path id="Vector_47" d="M116.426 42.4841C118.189 39.3144 119.952 36.1425 121.713 32.9728C123.004 30.6489 124.31 28.2916 124.994 25.7407C127.614 26.2393 130.058 27.4858 131.974 29.3C126.721 33.8765 121.786 38.8336 117.23 44.1158L116.426 42.4841Z" fill="#DF6565"/>
<path id="Vector_48" d="M119.168 45.5208C122.596 46.0505 126.024 46.5803 129.452 47.1101C131.965 47.4996 134.512 47.8891 137.04 47.6309C137.403 50.2442 137.031 52.9553 135.981 55.3772C130.189 52.0895 124.154 49.2314 117.94 46.8385L119.168 45.5208Z" fill="#DF6565"/>
<path id="Vector_49" d="M100.048 60.1647C102.922 56.7568 106.561 54.0969 110.165 51.4703C109.942 51.0963 109.646 50.7646 109.299 50.4998C107.405 51.9644 105.604 53.547 103.908 55.2365C102.405 56.7323 100.967 58.3439 100.052 60.256L100.048 60.1647Z" fill="#CA4844"/>
<path id="Vector_50" d="M112.829 48.002C110.249 50.3215 107.669 52.6387 105.092 54.9581C103.2 56.6587 101.288 58.3816 99.8852 60.5029C97.6326 59.1295 95.7673 57.1261 94.5586 54.78C100.769 52.376 106.801 49.5112 112.586 46.2124L112.829 48.002Z" fill="#DF6565"/>
<path id="Vector_51" d="M116.056 66.8916C115.251 62.3462 114.886 57.7207 114.968 53.1042C115.371 52.9817 115.792 52.9261 116.212 52.9394C117.096 57.4959 117.141 62.2149 116.344 66.7892L116.056 66.8916Z" fill="#CA4844"/>
<path id="Vector_52" d="M116.651 49.1887C117.839 52.4474 119.026 55.7062 120.215 58.9649C121.085 61.3533 121.971 63.7729 123.415 65.8653C121.301 67.4435 118.745 68.4251 116.119 68.67C116.208 62.0122 115.801 55.3456 114.901 48.7479L116.651 49.1887Z" fill="#DF6565"/>
<path id="Vector_53" d="M98.238 32.8458C99.509 33.1129 100.35 34.2726 101.245 35.2142C103.465 37.5558 106.614 38.9359 108.546 41.5202C108.74 41.2843 108.934 41.0483 109.127 40.8124C109.187 40.7389 109.25 40.661 109.256 40.5675C109.265 40.4495 109.185 40.3449 109.109 40.2536C106.55 37.1908 103.767 34.1257 100.112 32.5208C99.4422 32.2269 98.6053 32.0044 98.0243 32.4473C98.0198 32.5364 98.0132 32.6276 98.0065 32.7167L98.238 32.8458Z" fill="#CA4844"/>
<path id="Vector_54" d="M112.057 43.1164C109.33 40.9728 106.605 38.827 103.878 36.6834C101.88 35.1119 99.854 33.5226 97.5234 32.5054C98.4917 30.0502 100.146 27.871 102.249 26.2772C105.682 31.9845 109.537 37.4358 113.777 42.571L112.057 43.1164Z" fill="#DF6565"/>
</g>
<g id="Group_13">
<path id="Vector_55" d="M114.327 36.7742C113 35.6991 112.319 33.8827 112.613 32.1999C112.751 31.4075 113.152 30.5883 113.893 30.27C114.848 29.8605 116.014 30.4993 116.455 31.4409C116.893 32.3824 116.749 33.5021 116.386 34.4748C116.023 35.452 115.453 36.3513 114.723 37.097C114.63 37.048 114.407 36.8388 114.327 36.7742Z" fill="#CA4844"/>
<path id="Vector_56" d="M114.572 35.8995C113.481 35.0158 112.922 33.5222 113.163 32.1399C113.276 31.4877 113.606 30.8133 114.213 30.5528C114.997 30.2145 115.958 30.742 116.319 31.5166C116.68 32.2913 116.559 33.2106 116.263 34.0119C115.965 34.8155 115.495 35.5545 114.897 36.1688C114.821 36.1243 114.638 35.9529 114.572 35.8995Z" fill="#FAD383"/>
<path id="Vector_57" d="M115.709 32.5743C115.438 32.9015 114.952 32.946 114.623 32.6744C114.293 32.4029 114.251 31.9176 114.523 31.5882C114.794 31.261 115.28 31.2165 115.609 31.488C115.936 31.7596 115.981 32.2471 115.709 32.5743Z" fill="#E4B34C"/>
<path id="Vector_58" d="M115.342 34.624C115.155 34.8488 114.825 34.8867 114.607 34.7042C114.389 34.5239 114.365 34.1922 114.552 33.9674C114.739 33.7426 115.068 33.7047 115.286 33.8872C115.504 34.0675 115.529 34.3992 115.342 34.624Z" fill="#E4B34C"/>
<path id="Vector_59" d="M115.607 31.9865C115.471 32.1512 115.204 32.1512 115.008 31.9909C114.814 31.8285 114.765 31.5658 114.901 31.4011C115.037 31.2364 115.306 31.2364 115.5 31.3966C115.696 31.5591 115.743 31.824 115.607 31.9865Z" fill="#FFEAB8"/>
</g>
<g id="Group_14">
<path id="Vector_60" d="M106.717 45.2511C105.561 46.5087 103.705 47.0741 102.044 46.6757C101.261 46.4887 100.468 46.0368 100.197 45.2778C99.8474 44.3006 100.56 43.1743 101.526 42.7936C102.492 42.413 103.6 42.6289 104.549 43.0518C105.501 43.4748 106.365 44.1003 107.062 44.8749C107.008 44.9639 106.786 45.1732 106.717 45.2511Z" fill="#CA4844"/>
<path id="Vector_61" d="M105.86 44.9513C104.909 45.9841 103.385 46.4494 102.018 46.1244C101.375 45.9708 100.722 45.599 100.5 44.9758C100.213 44.1722 100.798 43.2462 101.593 42.9346C102.387 42.623 103.298 42.7988 104.079 43.1461C104.863 43.4933 105.571 44.0075 106.145 44.6441C106.1 44.7153 105.918 44.889 105.86 44.9513Z" fill="#FAD383"/>
<path id="Vector_62" d="M102.61 43.607C102.919 43.8986 102.935 44.3861 102.643 44.6955C102.352 45.0049 101.864 45.0205 101.555 44.7289C101.245 44.4373 101.23 43.9498 101.521 43.6404C101.813 43.331 102.3 43.3154 102.61 43.607Z" fill="#E4B34C"/>
<path id="Vector_63" d="M104.636 44.103C104.849 44.3034 104.865 44.635 104.671 44.842C104.477 45.0491 104.146 45.0535 103.932 44.8509C103.718 44.6506 103.703 44.3189 103.896 44.1119C104.09 43.9049 104.422 43.9005 104.636 44.103Z" fill="#FFE199"/>
<path id="Vector_64" d="M102.02 43.6736C102.176 43.8205 102.16 44.0877 101.987 44.2724C101.813 44.4572 101.546 44.4883 101.392 44.3414C101.236 44.1945 101.252 43.9274 101.426 43.7426C101.597 43.5579 101.864 43.5267 102.02 43.6736Z" fill="#FFEAB8"/>
</g>
<g id="Group_15">
<path id="Vector_65" d="M112.31 53.7247C112.876 55.3363 112.502 57.2394 111.371 58.5193C110.837 59.1226 110.066 59.6101 109.27 59.4921C108.241 59.3407 107.585 58.1832 107.703 57.1504C107.823 56.1176 108.533 55.2428 109.352 54.6039C110.173 53.9629 111.13 53.4954 112.143 53.2439C112.194 53.3329 112.277 53.6268 112.31 53.7247Z" fill="#CA4844"/>
<path id="Vector_66" d="M111.642 54.339C112.108 55.6634 111.8 57.2282 110.87 58.2811C110.432 58.7775 109.797 59.1782 109.143 59.0802C108.297 58.9556 107.756 58.0051 107.856 57.1548C107.956 56.3045 108.539 55.5855 109.212 55.0602C109.886 54.5326 110.674 54.1498 111.507 53.9406C111.549 54.0162 111.614 54.2589 111.642 54.339Z" fill="#FFE199"/>
<path id="Vector_67" d="M108.929 56.5742C109.332 56.4384 109.77 56.6543 109.906 57.0572C110.042 57.4601 109.826 57.8986 109.423 58.0344C109.02 58.1701 108.582 57.9542 108.446 57.5513C108.308 57.1485 108.526 56.7099 108.929 56.5742Z" fill="#E4B34C"/>
<path id="Vector_68" d="M110.318 55.0203C110.596 54.9268 110.894 55.0693 110.986 55.3364C111.077 55.6057 110.925 55.8995 110.647 55.993C110.369 56.0865 110.071 55.9441 109.979 55.6769C109.888 55.4076 110.039 55.1138 110.318 55.0203Z" fill="#E4B34C"/>
<path id="Vector_69" d="M108.709 57.126C108.911 57.057 109.14 57.1972 109.22 57.4376C109.301 57.678 109.203 57.9273 109.002 57.9941C108.8 58.0631 108.571 57.9229 108.49 57.6825C108.41 57.4443 108.508 57.195 108.709 57.126Z" fill="#FFEAB8"/>
</g>
<path id="Vector_70" d="M122.48 23.2605C122.878 22.782 122.735 22.0075 122.161 21.5308C121.587 21.054 120.799 21.0555 120.402 21.534C120.004 22.0126 120.147 22.787 120.721 23.2638C121.296 23.7405 122.083 23.7391 122.48 23.2605Z" fill="#FFEAB8"/>
<path id="Vector_71" d="M116.869 22.1924C116.589 22.5285 116.134 22.6109 115.852 22.3771C115.569 22.1434 115.567 21.6804 115.847 21.3443C116.128 21.0082 116.582 20.9258 116.865 21.1596C117.147 21.3933 117.149 21.8563 116.869 22.1924Z" fill="#FFEAB8"/>
<path id="Vector_72" d="M114.042 70.4285C113.828 70.6845 113.348 70.6377 112.967 70.3239C112.586 70.0078 112.453 69.5448 112.666 69.2866C112.88 69.0306 113.361 69.0774 113.742 69.3912C114.122 69.7073 114.256 70.1703 114.042 70.4285Z" fill="#FFEAB8"/>
<path id="Vector_73" d="M108.444 65.3846C108.337 65.5137 108.137 65.5226 107.996 65.4069C107.856 65.2911 107.829 65.093 107.936 64.9639C108.043 64.8348 108.243 64.8259 108.384 64.9417C108.524 65.0574 108.551 65.2577 108.444 65.3846Z" fill="#FFEAB8"/>
</g>
</g>
<path id="Vector_74" d="M69.8465 23.3424C71.7701 23.3424 73.3296 22.5627 73.3296 21.6008C73.3296 20.639 71.7701 19.8593 69.8465 19.8593C67.9228 19.8593 66.3633 20.639 66.3633 21.6008C66.3633 22.5627 67.9228 23.3424 69.8465 23.3424Z" fill="white"/>
<path id="Vector_75" d="M68.1049 39.8875C69.0667 39.8875 69.8465 39.3027 69.8465 38.5813C69.8465 37.8599 69.0667 37.2751 68.1049 37.2751C67.1431 37.2751 66.3633 37.8599 66.3633 38.5813C66.3633 39.3027 67.1431 39.8875 68.1049 39.8875Z" fill="white"/>
<path id="Vector_76" d="M71.588 57.7384C71.588 57.9779 71.1989 58.1738 70.7172 58.1738C70.2355 58.1738 69.8464 57.9795 69.8464 57.7384C69.8464 57.4972 70.2355 57.303 70.7172 57.303C71.1989 57.303 71.588 57.4988 71.588 57.7384Z" fill="white"/>
<path id="Vector_77" d="M75.942 84.7324C75.942 85.4533 75.3572 86.0386 74.6358 86.0386C73.9144 86.0386 73.3297 85.4533 73.3297 84.7324C73.3297 84.0116 73.9144 83.4263 74.6358 83.4263C75.3589 83.4263 75.942 84.0116 75.942 84.7324Z" fill="white"/>
</g>
</g>
<defs>
<radialGradient id="paint0_radial_1_9981" cx="0" cy="0" r="1" gradientUnits="userSpaceOnUse" gradientTransform="translate(58.1432 46.1377) scale(42.2281 42.2281)">
<stop stop-color="#330902"/>
<stop offset="1" stop-color="#170300"/>
</radialGradient>
<radialGradient id="paint1_radial_1_9981" cx="0" cy="0" r="1" gradientUnits="userSpaceOnUse" gradientTransform="translate(42.9226 46.1597) scale(32.4644 32.4645)">
<stop stop-color="#330902"/>
<stop offset="1" stop-color="#170300"/>
</radialGradient>
</defs>
</svg>
